# xmcd CD database file
#
# Track frame offsets:
#	150
#	13252
#	25980
#	40037
#	51051
#	63690
#	77172
#	90638
#	103625
#	113717
#	125797
#
# Disc length: 1851 seconds
#
# Revision: 0
# Processed by: cddbd v1.5.2PL0 Copyright (c) Steve Scherf et al.
# Submitted via: CDex 1.51
#
DISCID=9007390b
DTITLE=Ken Sanders - Pappy Ken Sings Country
DYEAR=2008
DGENRE=Country
TTITLE0=Four Walls
TTITLE1=Your Cheating Heart
TTITLE2=Peace In The Valley
TTITLE3=I Guess I'm Crazy
TTITLE4=Right Or Wrong
TTITLE5=He Stopped Loving Her Today
TTITLE6=Red Roses From The Blue Side Of Town
TTITLE7=Window Up Above
TTITLE8=Blue Boy
TTITLE9=You Win Again
TTITLE10=Candy Kisses
EXTD=YEAR: 2008
EXTT0=
EXTT1=
EXTT2=
EXTT3=
EXTT4=
EXTT5=
EXTT6=
EXTT7=
EXTT8=
EXTT9=
EXTT10=
PLAYORDER=
